<svg height='100px' width='100px'  fill="#000000" xmlns:dc="http://purl.org/dc/elements/1.1/" xmlns:cc="http://creativecommons.org/ns#" xmlns:rdf="http://www.w3.org/1999/02/22-rdf-syntax-ns#" xmlns:svg="http://www.w3.org/2000/svg" xmlns="http://www.w3.org/2000/svg" xmlns:sodipodi="http://sodipodi.sourceforge.net/DTD/sodipodi-0.dtd" xmlns:inkscape="http://www.inkscape.org/namespaces/inkscape" viewBox="0 0 100 100" version="1.1" x="0px" y="0px">
<g transform="translate(0,-952.36216)">
<path style="opacity:1;fill:#ffffff;fill-opacity:1;stroke:none;stroke-width:5;stroke-linecap:butt;stroke-linejoin:miter;stroke-miterlimit:4;stroke-dasharray:none;stroke-opacity:1" d="m 5,978.67796 0,3.6437 0,3.6437 0,3.6438 0,3.6437 0,3.6437 0,3.64374 0,3.6438 35.99957,0 54.00043,0 0,-3.6438 -54.00043,0 0,-3.64374 54.00043,0 0,-3.6437 -54.00043,0 0,-3.6437 54.00043,0 0,-3.6438 -54.00043,0 0,-3.6437 54.00043,0 0,-3.6437 -54.00043,0 -35.99957,0 z m 3.01461,1.212 0.33164,1.0155 1.05824,0.011 -0.85043,0.634 0.3174,1.0234 -0.85756,-0.6241 -0.86254,0.622 0.32025,-1.0191 -0.84973,-0.6391 1.0554,-0.01 0.33733,-1.017 z m 5.99009,0 0.33163,1.0155 1.05896,0.011 -0.85115,0.634 0.3174,1.0234 -0.85755,-0.6241 -0.86254,0.622 0.32096,-1.0191 -0.85044,-0.6391 1.05611,-0.01 0.33662,-1.017 z m 6.00076,0 0.33163,1.0155 1.05825,0.011 -0.85044,0.634 0.3174,1.0234 -0.85755,-0.6241 -0.86254,0.622 0.32096,-1.0191 -0.85044,-0.6391 1.05611,-0.01 0.33662,-1.017 z m 5.99008,0 0.33235,1.0155 1.05824,0.011 -0.85044,0.634 0.31669,1.0234 -0.85755,-0.6241 -0.86183,0.622 0.32025,-1.0191 -0.84973,-0.6391 1.0554,-0.01 0.33662,-1.017 z m 6.01143,0 0.33164,1.0155 1.05824,0.011 -0.85043,0.634 0.3174,1.0234 -0.85756,-0.6241 -0.86254,0.622 0.32097,-1.0191 -0.85045,-0.6391 1.05612,-0.01 0.33661,-1.017 z m 5.99009,0 0.33235,1.0155 1.05824,0.011 -0.85044,0.634 0.31669,1.0234 -0.85755,-0.6241 -0.86183,0.622 0.32025,-1.0191 -0.84973,-0.6391 1.0554,-0.01 0.33662,-1.017 z m -27.00057,2.5385 0.33164,1.0155 1.05824,0.011 -0.85044,0.6341 0.3174,1.0233 -0.85755,-0.6241 -0.86254,0.622 0.32096,-1.0191 -0.85044,-0.6391 1.0554,-0.01 0.33733,-1.017 z m 5.99008,0 0.33235,1.0155 1.05825,0.011 -0.85044,0.6341 0.31669,1.0233 -0.85756,-0.6241 -0.86182,0.622 0.32024,-1.0191 -0.84972,-0.6391 1.05539,-0.01 0.33662,-1.017 z m 6.00076,0 0.33235,1.0155 1.05825,0.011 -0.85045,0.6341 0.3167,1.0233 -0.85756,-0.6241 -0.86182,0.622 0.32024,-1.0191 -0.85044,-0.6391 1.05612,-0.01 0.33661,-1.017 z m 5.9908,0 0.33164,1.0155 1.05824,0.011 -0.85044,0.6341 0.3174,1.0233 -0.85755,-0.6241 -0.86254,0.622 0.32025,-1.0191 -0.84973,-0.6391 1.0554,-0.01 0.33733,-1.017 z m 6.01072,0 0.33235,1.0155 1.05824,0.011 -0.85044,0.6341 0.3167,1.0233 -0.85756,-0.6241 -0.86183,0.622 0.32025,-1.0191 -0.85044,-0.6391 1.05611,-0.01 0.33662,-1.017 z m -26.97424,2.5569 0.33164,1.0156 1.05824,0.011 -0.85043,0.6341 0.3174,1.0234 -0.85756,-0.6242 -0.86254,0.622 0.32025,-1.0191 -0.84973,-0.6391 1.0554,-0.01 0.33733,-1.017 z m 5.99009,0 0.33163,1.0156 1.05896,0.011 -0.85115,0.6341 0.3174,1.0234 -0.85755,-0.6242 -0.86254,0.622 0.32096,-1.0191 -0.85044,-0.6391 1.05611,-0.01 0.33662,-1.017 z m 6.00076,0 0.33163,1.0156 1.05825,0.011 -0.85044,0.6341 0.3174,1.0234 -0.85755,-0.6242 -0.86254,0.622 0.32096,-1.0191 -0.85044,-0.6391 1.05611,-0.01 0.33662,-1.017 z m 5.99008,0 0.33235,1.0156 1.05824,0.011 -0.85044,0.6341 0.31669,1.0234 -0.85755,-0.6242 -0.86183,0.622 0.32025,-1.0191 -0.84973,-0.6391 1.0554,-0.01 0.33662,-1.017 z m 6.01143,0 0.33164,1.0156 1.05824,0.011 -0.85043,0.6341 0.3174,1.0234 -0.85756,-0.6242 -0.86254,0.622 0.32097,-1.0191 -0.85045,-0.6391 1.05612,-0.01 0.33661,-1.017 z m 5.99009,0 0.33235,1.0156 1.05824,0.011 -0.85044,0.6341 0.31669,1.0234 -0.85755,-0.6242 -0.86183,0.622 0.32025,-1.0191 -0.84973,-0.6391 1.0554,-0.01 0.33662,-1.017 z m -27.00057,2.5386 0.33164,1.0162 1.05824,0.01 -0.85044,0.6341 0.3174,1.0234 -0.85755,-0.6242 -0.86254,0.622 0.32096,-1.0191 -0.85044,-0.6391 1.0554,-0.01 0.33733,-1.017 z m 5.99008,0 0.33235,1.0162 1.05825,0.01 -0.85044,0.6341 0.31669,1.0234 -0.85756,-0.6242 -0.86182,0.622 0.32024,-1.0191 -0.84972,-0.6391 1.05539,-0.01 0.33662,-1.017 z m 6.00076,0 0.33235,1.0162 1.05825,0.01 -0.85045,0.6341 0.3167,1.0234 -0.85756,-0.6242 -0.86182,0.622 0.32024,-1.0191 -0.85044,-0.6391 1.05612,-0.01 0.33661,-1.017 z m 5.9908,0 0.33164,1.0162 1.05824,0.01 -0.85044,0.6341 0.3174,1.0234 -0.85755,-0.6242 -0.86254,0.622 0.32025,-1.0191 -0.84973,-0.6391 1.0554,-0.01 0.33733,-1.017 z m 6.01072,0 0.33235,1.0162 1.05824,0.01 -0.85044,0.6341 0.3167,1.0234 -0.85756,-0.6242 -0.86183,0.622 0.32025,-1.0191 -0.85044,-0.6391 1.05611,-0.01 0.33662,-1.017 z m -26.97424,2.5627 0.33164,1.0155 1.05824,0.011 -0.85043,0.6341 0.3174,1.0234 -0.85756,-0.6242 -0.86254,0.622 0.32025,-1.0191 -0.84973,-0.6391 1.0554,-0.01 0.33733,-1.017 z m 5.99009,0 0.33163,1.0155 1.05896,0.011 -0.85115,0.6341 0.3174,1.0234 -0.85755,-0.6242 -0.86254,0.622 0.32096,-1.0191 -0.85044,-0.6391 1.05611,-0.01 0.33662,-1.017 z m 6.00076,0 0.33163,1.0155 1.05825,0.011 -0.85044,0.6341 0.3174,1.0234 -0.85755,-0.6242 -0.86254,0.622 0.32096,-1.0191 -0.85044,-0.6391 1.05611,-0.01 0.33662,-1.017 z m 5.99008,0 0.33235,1.0155 1.05824,0.011 -0.85044,0.6341 0.31669,1.0234 -0.85755,-0.6242 -0.86183,0.622 0.32025,-1.0191 -0.84973,-0.6391 1.0554,-0.01 0.33662,-1.017 z m 6.01143,0 0.33164,1.0155 1.05824,0.011 -0.85043,0.6341 0.3174,1.0234 -0.85756,-0.6242 -0.86254,0.622 0.32097,-1.0191 -0.85045,-0.6391 1.05612,-0.01 0.33661,-1.017 z m 5.99009,0 0.33235,1.0155 1.05824,0.011 -0.85044,0.6341 0.31669,1.0234 -0.85755,-0.6242 -0.86183,0.622 0.32025,-1.0191 -0.84973,-0.6391 1.0554,-0.01 0.33662,-1.017 z m -27.00057,2.5385 0.33164,1.0162 1.05824,0.01 -0.85044,0.6341 0.3174,1.0234 -0.85755,-0.6242 -0.86254,0.622 0.32096,-1.0191 -0.85044,-0.6391 1.0554,-0.01 0.33733,-1.017 z m 5.99008,0 0.33235,1.0162 1.05825,0.01 -0.85044,0.6341 0.31669,1.0234 -0.85756,-0.6242 -0.86182,0.622 0.32024,-1.0191 -0.84972,-0.6391 1.05539,-0.01 0.33662,-1.017 z m 6.00076,0 0.33235,1.0162 1.05825,0.01 -0.85045,0.6341 0.3167,1.0234 -0.85756,-0.6242 -0.86182,0.622 0.32024,-1.0191 -0.85044,-0.6391 1.05612,-0.01 0.33661,-1.017 z m 5.9908,0 0.33164,1.0162 1.05824,0.01 -0.85044,0.6341 0.3174,1.0234 -0.85755,-0.6242 -0.86254,0.622 0.32025,-1.0191 -0.84973,-0.6391 1.0554,-0.01 0.33733,-1.017 z m 6.01072,0 0.33235,1.0162 1.05824,0.01 -0.85044,0.6341 0.3167,1.0234 -0.85756,-0.6242 -0.86183,0.622 0.32025,-1.0191 -0.85044,-0.6391 1.05611,-0.01 0.33662,-1.017 z m -26.97424,2.562 0.33164,1.0155 1.05824,0.011 -0.85043,0.6334 0.3174,1.0234 -0.85756,-0.6242 -0.86254,0.622 0.32025,-1.0191 -0.84973,-0.6391 1.0554,-0.01 0.33733,-1.017 z m 5.99009,0 0.33163,1.0155 1.05896,0.011 -0.85115,0.6334 0.3174,1.0234 -0.85755,-0.6242 -0.86254,0.622 0.32096,-1.0191 -0.85044,-0.6391 1.05611,-0.01 0.33662,-1.017 z m 6.00076,0 0.33163,1.0155 1.05825,0.011 -0.85044,0.6334 0.3174,1.0234 -0.85755,-0.6242 -0.86254,0.622 0.32096,-1.0191 -0.85044,-0.6391 1.05611,-0.01 0.33662,-1.017 z m 5.99008,0 0.33235,1.0155 1.05824,0.011 -0.85044,0.6334 0.31669,1.0234 -0.85755,-0.6242 -0.86183,0.622 0.32025,-1.0191 -0.84973,-0.6391 1.0554,-0.01 0.33662,-1.017 z m 6.01143,0 0.33164,1.0155 1.05824,0.011 -0.85043,0.6334 0.3174,1.0234 -0.85756,-0.6242 -0.86254,0.622 0.32097,-1.0191 -0.85045,-0.6391 1.05612,-0.01 0.33661,-1.017 z m 5.99009,0 0.33235,1.0155 1.05824,0.011 -0.85044,0.6334 0.31669,1.0234 -0.85755,-0.6242 -0.86183,0.622 0.32025,-1.0191 -0.84973,-0.6391 1.0554,-0.01 0.33662,-1.017 z m -27.00057,2.5385 0.33164,1.0155 1.05824,0.011 -0.85044,0.6334 0.3174,1.02344 -0.85755,-0.62424 -0.86254,0.62204 0.32096,-1.01914 -0.85044,-0.6391 1.0554,-0.01 0.33733,-1.017 z m 5.99008,0 0.33235,1.0155 1.05825,0.011 -0.85044,0.6334 0.31669,1.02344 -0.85756,-0.62424 -0.86182,0.62204 0.32024,-1.01914 -0.84972,-0.6391 1.05539,-0.01 0.33662,-1.017 z m 6.00076,0 0.33235,1.0155 1.05825,0.011 -0.85045,0.6334 0.3167,1.02344 -0.85756,-0.62424 -0.86182,0.62204 0.32024,-1.01914 -0.85044,-0.6391 1.05612,-0.01 0.33661,-1.017 z m 5.9908,0 0.33164,1.0155 1.05824,0.011 -0.85044,0.6334 0.3174,1.02344 -0.85755,-0.62424 -0.86254,0.62204 0.32025,-1.01914 -0.84973,-0.6391 1.0554,-0.01 0.33733,-1.017 z m 6.01072,0 0.33235,1.0155 1.05824,0.011 -0.85044,0.6334 0.3167,1.02344 -0.85756,-0.62424 -0.86183,0.62204 0.32025,-1.01914 -0.85044,-0.6391 1.05611,-0.01 0.33662,-1.017 z m -26.9842,2.56274 0.33164,1.0155 1.05824,0.011 -0.85044,0.6334 0.3174,1.0234 -0.85755,-0.6235 -0.86254,0.6221 0.32025,-1.0199 -0.84973,-0.6391 1.0554,-0.01 0.33733,-1.017 z m 6.00005,0 0.33163,1.0155 1.05896,0.011 -0.85115,0.6334 0.3174,1.0234 -0.85755,-0.6235 -0.86254,0.6221 0.32096,-1.0199 -0.85044,-0.6391 1.05611,-0.01 0.33662,-1.017 z m 6.00076,0 0.33163,1.0155 1.05825,0.011 -0.85044,0.6334 0.3174,1.0234 -0.85755,-0.6235 -0.86254,0.6221 0.32096,-1.0199 -0.85044,-0.6391 1.05611,-0.01 0.33662,-1.017 z m 5.99008,0 0.33235,1.0155 1.05824,0.011 -0.85044,0.6334 0.31669,1.0234 -0.85755,-0.6235 -0.86183,0.6221 0.32025,-1.0199 -0.84973,-0.6391 1.0554,-0.01 0.33662,-1.017 z m 6.01143,0 0.33164,1.0155 1.05824,0.011 -0.85043,0.6334 0.3174,1.0234 -0.85756,-0.6235 -0.86254,0.6221 0.32097,-1.0199 -0.85045,-0.6391 1.05612,-0.01 0.33661,-1.017 z m 5.99009,0 0.33235,1.0155 1.05824,0.011 -0.85044,0.6334 0.31669,1.0234 -0.85755,-0.6235 -0.86183,0.6221 0.32025,-1.0199 -0.84973,-0.6391 1.0554,-0.01 0.33662,-1.017 z M 5,1007.8278 l 0,3.6437 90,0 0,-3.6437 -90,0 z m 0,7.2874 0,3.6438 90,0 0,-3.6438 -90,0 z m 0,7.2875 0,3.6437 90,0 0,-3.6437 -90,0 z">
</path>
</g>
</svg>