<svg height='100px' width='100px'  fill="#f4efd0" xmlns="http://www.w3.org/2000/svg" version="1.1" viewBox="0 0 32 32" x="0px" y="0px"><path d="M16 1.47c-8.016 0-14.529 6.514-14.529 14.531s6.513 14.529 14.529 14.529 14.529-6.513 14.529-14.529c0-8.016-6.513-14.531-14.529-14.531zM15.998 2.679h0.006c0.568 0.002 0.997 0.397 1.436 1s0.875 1.476 1.27 2.664c0.37 1.109 0.665 2.369 0.882 3.732l0.081 0.502-0.509 0.040c-1.023 0.081-2.084 0.125-3.164 0.125s-2.139-0.044-3.162-0.125l-0.509-0.040 0.081-0.502c0.218-1.362 0.513-2.621 0.882-3.73 0.396-1.187 0.832-2.060 1.27-2.664s0.867-1 1.436-1.002zM13.583 2.854l-0.529 0.969c-0.835 1.528-1.469 3.711-1.853 6.165l-0.072 0.458-0.46-0.066c-2.082-0.295-3.921-0.757-5.34-1.371l-0.533-0.232 0.336-0.472c1.766-2.487 4.364-4.342 7.384-5.162zM18.417 2.854l1.066 0.289c3.020 0.819 5.618 2.674 7.384 5.16l0.336 0.472-0.533 0.232c-1.419 0.614-3.258 1.076-5.34 1.371l-0.46 0.066-0.072-0.458c-0.383-2.453-1.017-4.636-1.853-6.164zM4.193 9.819l0.419 0.191c1.528 0.698 3.579 1.245 5.923 1.575l0.445 0.063-0.042 0.447c-0.122 1.275-0.184 2.591-0.184 3.904s0.062 2.63 0.184 3.904l0.042 0.447-0.445 0.063c-2.344 0.33-4.394 0.877-5.923 1.575l-0.419 0.191-0.2-0.415c-0.841-1.746-1.313-3.702-1.313-5.765s0.471-4.019 1.313-5.765zM27.807 9.819l0.2 0.415c0.842 1.746 1.313 3.703 1.313 5.767s-0.471 4.019-1.313 5.765l-0.2 0.415-0.419-0.191c-1.528-0.698-3.581-1.245-5.925-1.575l-0.445-0.063 0.042-0.447c0.122-1.275 0.184-2.591 0.184-3.904s-0.062-2.631-0.184-3.906l-0.050-0.515h0.474c2.334-0.331 4.38-0.874 5.903-1.57zM12.18 11.778l0.463 0.039c1.081 0.088 2.207 0.134 3.357 0.134s2.274-0.046 3.357-0.134l0.463-0.039 0.044 0.463c0.113 1.207 0.173 2.468 0.173 3.759s-0.059 2.552-0.173 3.757l-0.044 0.463-0.463-0.039c-1.081-0.088-2.205-0.134-3.355-0.134h-0.002c-1.151 0-2.275 0.046-3.357 0.134l-0.463 0.039-0.044-0.463c-0.113-1.207-0.173-2.467-0.173-3.757s0.059-2.553 0.173-3.759zM16 21.258c1.080 0 2.14 0.043 3.164 0.125l0.509 0.040-0.081 0.502c-0.218 1.362-0.513 2.621-0.882 3.73-0.396 1.188-0.833 2.062-1.272 2.665s-0.868 1-1.438 1h-0.471v-0.169c-0.345-0.156-0.662-0.413-0.967-0.831-0.439-0.603-0.876-1.477-1.272-2.665-0.37-1.109-0.664-2.37-0.882-3.732l-0.081-0.502 0.509-0.040c1.024-0.081 2.084-0.123 3.164-0.123zM11.13 21.554l0.072 0.458c0.383 2.453 1.017 4.636 1.853 6.164l0.529 0.969-1.066-0.289c-3.021-0.819-5.618-2.674-7.384-5.16l-0.336-0.472 0.533-0.232c1.418-0.614 3.258-1.076 5.34-1.371zM20.869 21.554l0.46 0.066c2.082 0.295 3.923 0.757 5.342 1.371l0.533 0.232-0.336 0.472c-1.766 2.487-4.364 4.341-7.384 5.16l-1.066 0.289 0.529-0.969c0.835-1.528 1.468-3.71 1.851-6.164z"></path></svg>